<?xml version="1.0" encoding="UTF-8" standalone="no"?>
<!-- Created with Inkscape (http://www.inkscape.org/) -->

<svg
   xmlns:dc="http://purl.org/dc/elements/1.1/"
   xmlns:cc="http://creativecommons.org/ns#"
   xmlns:rdf="http://www.w3.org/1999/02/22-rdf-syntax-ns#"
   xmlns:svg="http://www.w3.org/2000/svg"
   xmlns="http://www.w3.org/2000/svg"
   xmlns:sodipodi="http://sodipodi.sourceforge.net/DTD/sodipodi-0.dtd"
   xmlns:inkscape="http://www.inkscape.org/namespaces/inkscape"
   width="1024"
   height="1024"
   viewBox="0 0 270.93333 270.93333"
   version="1.1"
   id="svg8"
   inkscape:version="0.92.2 (5c3e80d, 2017-08-06)"
   sodipodi:docname="logo.svg">
  <defs
     id="defs2" />
  <sodipodi:namedview
     id="base"
     pagecolor="#ffffff"
     bordercolor="#666666"
     borderopacity="1.0"
     inkscape:pageopacity="0.0"
     inkscape:pageshadow="2"
     inkscape:zoom="0.7"
     inkscape:cx="351.45274"
     inkscape:cy="508.98421"
     inkscape:document-units="mm"
     inkscape:current-layer="layer1"
     showgrid="false"
     units="px"
     width="1024px"
     inkscape:pagecheckerboard="true"
     inkscape:window-width="1920"
     inkscape:window-height="1027"
     inkscape:window-x="-8"
     inkscape:window-y="-8"
     inkscape:window-maximized="1" />
  <metadata
     id="metadata5">
    <rdf:RDF>
      <cc:Work
         rdf:about="">
        <dc:format>image/svg+xml</dc:format>
        <dc:type
           rdf:resource="http://purl.org/dc/dcmitype/StillImage" />
        <dc:title></dc:title>
      </cc:Work>
    </rdf:RDF>
  </metadata>
  <g
     inkscape:label="Layer 1"
     inkscape:groupmode="layer"
     id="layer1"
     transform="translate(0,-26.066667)">
    <rect
       id="rect3972"
       width="242.66072"
       height="249.84225"
       x="17.386906"
       y="39.976189"
       style="stroke-width:0.26458332;fill:#ffffff" />
    <path
       style="fill:#ff0000;stroke:#000000;stroke-width:0.99999994px;stroke-linecap:butt;stroke-linejoin:miter;stroke-opacity:1"
       d="M 555.62305 105.31055 C 553.38219 105.27137 549.49188 105.42773 548.57227 105.42773 C 547.8091 105.42773 541.8366 105.2233 541.42773 105.42773 C 537.07138 107.60599 544.04105 106.56054 537.14258 108.28516 C 536.2186 108.51616 535.21904 108.09837 534.28516 108.28516 C 532.80857 108.58047 531.47662 109.41951 530 109.71484 C 529.06612 109.90163 528.04611 109.41369 527.14258 109.71484 C 526.50372 109.92779 526.3537 110.9296 525.71484 111.14258 C 524.81131 111.44373 523.78137 110.91157 522.85742 111.14258 C 521.82444 111.40083 521.01015 112.23555 520 112.57227 C 519.54827 112.72284 519.02399 112.42169 518.57227 112.57227 C 516.55196 113.24569 514.87773 114.75431 512.85742 115.42773 C 512.40565 115.57831 511.85369 115.21476 511.42773 115.42773 C 510.82539 115.72891 510.56031 116.48385 510 116.85742 C 509.11404 117.44806 508.02854 117.69452 507.14258 118.28516 C 506.58223 118.65872 506.31719 119.41369 505.71484 119.71484 C 504.86301 120.14075 503.53086 119.0414 502.85742 119.71484 C 502.52067 120.05155 503.19418 120.80586 502.85742 121.14258 C 502.1045 121.8955 499.85751 119.74217 500 122.57227 C 499.40937 123.45822 499.16289 124.54177 498.57227 125.42773 C 497.4516 127.10873 495.54722 128.13724 494.28516 129.71484 C 493.2126 131.05553 492.45788 132.62646 491.42773 134 C 490.21553 135.61624 488.40464 136.70757 487.14258 138.28516 C 486.07002 139.62586 485.49922 141.35821 484.28516 142.57227 C 483.53224 143.32519 482.18065 143.24708 481.42773 144 C 480.67481 144.75292 480.47618 145.90504 480 146.85742 C 479.52382 147.8098 478.90902 148.70469 478.57227 149.71484 C 478.42184 150.1666 478.78505 150.71666 478.57227 151.14258 C 477.96992 152.34725 476.14076 152.72225 475.71484 154 C 475.41362 154.90351 475.94577 155.93348 475.71484 156.85742 C 475.18031 158.99565 472.19589 162.46373 471.42773 164 C 471.21495 164.42592 471.54339 164.96576 471.42773 165.42773 C 471.06252 166.88862 470.55926 168.31669 470 169.71484 C 469.60455 170.70347 468.96772 171.58362 468.57227 172.57227 C 467.74908 174.63017 467.15065 177.8004 465.71484 179.71484 C 464.90671 180.79233 463.45977 181.36759 462.85742 182.57227 C 462.00559 184.27594 463.31943 186.43727 462.85742 188.28516 C 462.16407 191.05856 459.59644 192.86729 458.57227 195.42773 C 458.2185 196.31199 458.80319 197.36122 458.57227 198.28516 C 458.03769 200.42339 455.05327 203.89147 454.28516 205.42773 C 453.61172 206.7746 453.45062 208.33074 452.85742 209.71484 C 452.01856 211.67225 450.83887 213.47034 450 215.42773 C 449.4068 216.81183 449.16546 218.33075 448.57227 219.71484 C 447.7334 221.67225 446.55371 223.47033 445.71484 225.42773 C 444.52849 228.19591 444.20429 231.30626 442.85742 234 C 442.08957 235.53567 440.88331 236.81291 440 238.28516 C 438.90431 240.11127 438.09498 242.09524 437.14258 244 C 436.6664 244.95238 435.92385 245.81331 435.71484 246.85742 C 435.43478 248.25825 436.24538 249.81618 435.71484 251.14258 C 435.21462 252.39311 433.5504 252.84507 432.85742 254 C 432.08269 255.29125 432.0393 256.9091 431.42773 258.28516 C 430.13037 261.20423 428.57116 264.00028 427.14258 266.85742 C 422.55748 276.02757 423.15736 274.82986 418.57227 284 C 417.14372 286.85713 415.51377 289.62359 414.28516 292.57227 C 413.12684 295.3523 412.674 298.40083 411.42773 301.14258 C 410.27876 303.67033 408.47218 305.84755 407.14258 308.28516 C 392.0318 335.98822 411.81295 300.3741 400 324 C 399.23219 325.53566 397.74541 326.67757 397.14258 328.28516 C 396.28999 330.55869 396.56743 333.1542 395.71484 335.42773 C 394.50914 338.64294 391.08586 340.74239 390 344 C 389.54823 345.35526 390.39247 346.91156 390 348.28516 C 389.41497 350.33279 388.09494 352.09523 387.14258 354 C 384.76159 358.7619 382.16227 363.42003 380 368.28516 C 378.95848 370.6285 378.09497 373.04678 377.14258 375.42773 C 376.66639 377.3325 376.44402 379.31964 375.71484 381.14258 C 374.52847 384.10849 372.74958 386.8068 371.42773 389.71484 C 370.36659 392.04934 369.71909 394.56378 368.57227 396.85742 C 365.43718 403.12762 365.36195 399.34387 362.85742 406.85742 C 362.55627 407.76096 363.08843 408.7909 362.85742 409.71484 C 362.59917 410.74783 361.90392 411.6199 361.42773 412.57227 C 360.47535 414.47703 359.24569 416.26489 358.57227 418.28516 C 358.27111 419.18869 358.92595 420.25828 358.57227 421.14258 C 357.93461 422.73671 356.66722 423.99919 355.71484 425.42773 C 354.76246 427.80869 353.8098 430.19131 352.85742 432.57227 C 351.57171 436.00083 349.71512 442.8563 348.57227 445.42773 C 347.87495 446.99669 346.39118 448.13674 345.71484 449.71484 C 344.16802 453.3241 344.09918 457.41732 342.85742 461.14258 C 341.78831 464.34992 340.20235 465.02501 338.57227 468.28516 C 337.89883 469.63203 337.70183 471.1741 337.14258 472.57227 C 336.35167 474.54953 335.07607 476.3079 334.28516 478.28516 C 333.72591 479.68332 333.41668 481.17414 332.85742 482.57227 C 332.46197 483.56091 331.82319 484.43912 331.42773 485.42773 C 330.30922 488.22406 329.39963 491.1042 328.57227 494 C 328.03289 495.88784 327.83197 497.87644 327.14258 499.71484 C 326.39483 501.70881 325.15007 503.48169 324.28516 505.42773 C 323.24368 507.77108 322.46922 510.22892 321.42773 512.57227 C 320.56283 514.51831 319.32001 516.29115 318.57227 518.28516 C 317.19911 521.94688 317.44166 524.8315 315.71484 528.28516 C 314.94701 529.82082 313.62526 531.03661 312.85742 532.57227 C 312.18399 533.91914 311.98699 535.45926 311.42773 536.85742 C 311.03229 537.84603 310.39545 538.72619 310 539.71484 C 309.44074 541.113 309.13153 542.60184 308.57227 544 C 308.17681 544.98865 307.53803 545.86881 307.14258 546.85742 C 306.02406 549.65371 305.63203 552.73399 304.28516 555.42773 C 303.51733 556.96339 302.10406 558.13674 301.42773 559.71484 C 300.65432 561.51945 300.77341 563.62312 300 565.42773 C 299.32367 567.00584 297.91041 568.17918 297.14258 569.71484 C 295.99576 572.00849 295.32665 574.51408 294.28516 576.85742 C 293.42026 578.80346 292.10117 580.55196 291.42773 582.57227 C 290.6599 584.87574 290.85256 587.44131 290 589.71484 C 289.39715 591.32243 287.99441 592.50928 287.14258 594 C 286.08601 595.84898 285.03291 597.72084 284.28516 599.71484 C 282.91202 603.37656 283.15457 606.26119 281.42773 609.71484 C 280.6599 611.2505 279.3401 612.46434 278.57227 614 C 277.89883 615.34687 277.70183 616.887 277.14258 618.28516 C 276.74712 619.27381 276.13428 620.16391 275.71484 621.14258 C 274.70468 623.4996 274.00424 625.99155 272.85742 628.28516 C 272.08959 629.82085 270.67633 630.99416 270 632.57227 C 267.63648 638.08716 269.50609 637.05737 267.14258 642.57227 C 265.88425 645.50835 264.04379 648.17667 262.85742 651.14258 C 262.29817 652.54074 262.10117 654.08086 261.42773 655.42773 C 260.6599 656.96339 259.3401 658.17918 258.57227 659.71484 C 257.89883 661.06172 257.61877 662.57141 257.14258 664 C 255.37729 669.29587 256.38717 666.93857 254.28516 671.14258 C 253.80897 672.09494 253.4963 673.14817 252.85742 674 C 252.0493 675.07751 250.50022 675.60689 250 676.85742 C 249.46944 678.18385 250.34647 679.75666 250 681.14258 C 249.83667 681.79591 248.97632 682.03349 248.57227 682.57227 C 247.54211 683.94578 246.59819 685.38514 245.71484 686.85742 C 244.07134 689.59656 243.0126 692.65424 241.42773 695.42773 C 240.5759 696.91846 239.3401 698.17918 238.57227 699.71484 C 237.42545 702.00849 237.07395 704.68287 235.71484 706.85742 C 234.64408 708.57064 232.5484 709.4616 231.42773 711.14258 C 230.59244 712.39553 230.67344 714.08086 230 715.42773 C 228.21115 719.00544 223.75185 725.06857 222.85742 726.85742 C 221.51055 729.55117 221.34687 732.73399 220 735.42773 C 219.23217 736.96339 218.02593 738.24257 217.14258 739.71484 C 216.59475 740.62786 216.19103 741.61986 215.71484 742.57227 C 215.23865 743.52463 214.62187 744.41758 214.28516 745.42773 C 213.66429 747.29036 213.4783 749.27995 212.85742 751.14258 C 212.52071 752.15273 211.82319 753.01135 211.42773 754 C 210.86847 755.39812 210.55926 756.887 210 758.28516 C 209.60455 759.27377 209.1201 760.22952 208.57227 761.14258 C 207.68892 762.61482 206.31769 763.82011 205.71484 765.42773 C 204.86227 767.70123 205.46436 770.44972 204.28516 772.57227 C 202.97697 774.92702 200.13797 776.09318 198.57227 778.28516 C 198.453 778.45214 195.90102 786.48514 195.71484 786.85742 C 194.9467 788.39369 191.96229 791.86177 191.42773 794 C 191.19677 794.92394 191.65874 795.93348 191.42773 796.85742 C 191.16948 797.89044 190.47619 798.76244 190 799.71484 C 189.52381 800.19103 188.78524 800.50372 188.57227 801.14258 C 188.27111 802.04607 188.87342 803.0965 188.57227 804 C 188.3593 804.63889 187.61877 804.95155 187.14258 805.42773 C 186.1902 806.3801 185.09329 807.20769 184.28516 808.28516 C 183.64628 809.13699 183.40526 810.22952 182.85742 811.14258 C 181.97407 812.61482 180.95238 813.99919 180 815.42773 C 179.04762 816.85632 178.21513 818.37417 177.14258 819.71484 C 176.30119 820.76657 175.03226 821.45156 174.28516 822.57227 C 173.10388 824.34418 172.66553 826.55224 171.42773 828.28516 C 170.25345 829.92914 168.35476 830.95603 167.14258 832.57227 C 165.47659 834.79357 164.47131 837.4554 162.85742 839.71484 C 158.42827 845.91565 161.20314 838.73631 157.14258 846.85742 C 156.46914 848.20429 156.38828 849.79571 155.71484 851.14258 C 155.41368 851.74492 154.76135 852.09605 154.28516 852.57227 C 153.33278 853.52463 152.23585 854.35023 151.42773 855.42773 C 150.78885 856.27956 150.59064 857.3992 150 858.28516 C 149.62645 858.84547 148.9458 859.15449 148.57227 859.71484 C 147.98162 860.6008 147.61877 861.61986 147.14258 862.57227 C 146.1902 864.47703 145.23754 866.38039 144.28516 868.28516 C 143.80897 869.23756 143.33361 870.19017 142.85742 871.14258 C 142.38123 872.09494 141.68599 872.96698 141.42773 874 C 141.19677 874.92394 141.58432 875.91798 141.42773 876.85742 C 141.10496 878.79409 140.32277 880.6356 140 882.57227 C 139.84341 883.5117 140 884.47533 140 885.42773 L 140 891.14258 L 140 905.42773 L 140 919.71484 C 140 921.61957 139.62643 923.55997 140 925.42773 C 140.29532 926.90436 141.1324 928.23822 141.42773 929.71484 C 141.61452 930.64873 141.00182 931.72044 141.42773 932.57227 C 141.6407 932.99818 142.5207 932.23551 142.85742 932.57227 C 143.19414 932.90898 142.5207 933.66324 142.85742 934 C 143.19414 934.33676 143.85925 933.78683 144.28516 934 C 147.31673 935.51578 144.111 935.34164 147.14258 936.85742 C 147.99441 937.28334 149.09649 936.55619 150 936.85742 C 150.70244 937.09156 155.0124 939.48051 155.71484 939.71484 C 157.07572 940.16846 161.46593 939.25102 162.85742 939.71484 C 163.86758 940.05156 164.70468 940.80582 165.71484 941.14258 C 166.16659 941.293 166.6806 941.02692 167.14258 941.14258 C 168.60346 941.50779 169.95113 942.27708 171.42773 942.57227 C 173.19889 942.92641 175.37648 942.13074 177.14258 942.57227 C 178.60346 942.93752 179.96686 943.6349 181.42773 944 C 182.35169 944.23093 183.33278 944 184.28516 944 L 190 944 C 190.95238 944 191.95392 943.69877 192.85742 944 C 193.86758 944.33672 194.70468 945.09098 195.71484 945.42773 C 197.0474 945.8719 201.53707 944.98761 202.85742 945.42773 C 203.4963 945.64067 203.68283 946.55619 204.28516 946.85742 C 205.23191 947.33081 208.80268 946.45834 210 946.85742 C 211.01015 947.19414 211.84727 947.9484 212.85742 948.28516 C 214.14314 948.71372 215.85686 947.8566 217.14258 948.28516 C 217.78145 948.49809 217.96993 949.41362 218.57227 949.71484 C 218.99818 949.92763 219.52381 949.71484 220 949.71484 L 221.42773 949.71484 C 223.29729 949.71484 226.96112 949.39245 228.57227 949.71484 C 231.52548 950.30547 234.18936 951.9816 237.14258 952.57227 C 238.07646 952.75897 239.04762 952.57227 240 952.57227 L 247.14258 952.57227 C 248.57115 952.57227 250.04182 952.22568 251.42773 952.57227 C 252.08107 952.73558 252.21855 953.78721 252.85742 954 C 253.69325 954.27855 260.20155 954 261.42773 954 L 291.42773 954 C 292.38011 952.09527 293.49426 950.26242 294.28516 948.28516 C 294.58185 947.54342 294.28516 941.01391 294.28516 939.71484 L 294.28516 922.57227 C 294.28516 921.3751 293.98158 916.03488 294.28516 915.42773 C 294.49812 915.00182 295.37813 915.76449 295.71484 915.42773 C 296.05859 915.08395 295.3711 910.0584 295.71484 909.71484 C 296.05155 909.37809 296.80586 910.0516 297.14258 909.71484 C 297.53347 909.32397 296.75509 904.77495 297.14258 904 C 297.44375 903.39766 298.27111 903.17461 298.57227 902.57227 C 298.78524 902.14635 298.42169 901.59431 298.57227 901.14258 C 298.90899 900.13239 299.66328 899.29531 300 898.28516 C 300.30115 897.38166 299.69885 896.33123 300 895.42773 C 300.33672 894.41758 301.09102 893.58242 301.42773 892.57227 C 301.57831 892.1205 301.27716 891.59435 301.42773 891.14258 C 301.76445 890.13242 302.5207 889.29531 302.85742 888.28516 C 304.28599 883.99944 300.00028 891.14285 302.85742 884 C 303.49507 882.40587 304.947 881.2505 305.71484 879.71484 C 306.08127 878.98199 305.48093 873.74176 305.71484 872.57227 C 306.01016 871.09568 306.66639 869.71374 307.14258 868.28516 C 307.61877 867.33279 308.31401 866.46072 308.57227 865.42773 C 308.90842 864.08321 308.23611 862.48711 308.57227 861.14258 C 308.93749 859.68172 309.63478 858.31832 310 856.85742 C 310.1155 856.39545 309.78706 855.85365 310 855.42773 C 312.17826 851.07134 311.1328 858.04105 312.85742 851.14258 C 313.08843 850.21863 312.85742 849.23756 312.85742 848.28516 C 312.85742 847.80897 312.64445 847.28334 312.85742 846.85742 C 314.95943 842.65334 314.28516 849.07555 314.28516 842.57227 C 314.49811 841.93337 315.50191 841.78143 315.71484 841.14258 C 316.22084 839.62453 315.20883 836.94574 315.71484 835.42773 C 316.38828 833.40743 318.15462 831.80307 318.57227 829.71484 C 318.8524 828.314 318.57227 826.85628 318.57227 825.42773 C 318.57227 824.47533 318.27111 823.47576 318.57227 822.57227 C 318.78522 821.93337 319.69881 821.74492 320 821.14258 C 320.67344 819.79571 320.95154 818.28601 321.42773 816.85742 C 322.38011 814.00029 323.33278 811.14233 324.28516 808.28516 C 324.76135 806.85661 325.12165 805.3841 325.71484 804 C 327.79301 799.15098 330.09864 796.4589 331.42773 791.14258 C 331.7742 789.75666 331.11781 788.25199 331.42773 786.85742 C 332.08106 783.91744 333.33278 781.14233 334.28516 778.28516 C 334.76135 776.85661 335.12165 775.3841 335.71484 774 C 336.55372 772.04262 337.82452 770.27916 338.57227 768.28516 C 339.95105 764.60839 340.34897 760.63309 341.42773 756.85742 C 341.84142 755.40952 342.64445 754.06299 342.85742 752.57227 C 343.12679 750.68666 342.54429 748.73626 342.85742 746.85742 C 343.03247 745.80709 344.07634 745.04413 344.28516 744 C 344.56533 742.59919 344.0503 741.12397 344.28516 739.71484 C 344.53272 738.22949 345.46728 736.91309 345.71484 735.42773 C 345.9497 734.01858 345.71484 732.57116 345.71484 731.14258 L 345.71484 726.85742 C 345.71484 725.90506 345.52806 724.93388 345.71484 724 C 346.01016 722.52338 346.84725 721.19143 347.14258 719.71484 C 347.32936 718.78096 346.91157 717.78137 347.14258 716.85742 C 347.40083 715.8244 348.36345 715.04413 348.57227 714 C 348.8524 712.59919 348.29209 711.11565 348.57227 709.71484 C 348.78108 708.67071 349.74174 707.89044 350 706.85742 C 350.231 705.93348 350 704.9524 350 704 L 350 696.85742 C 350 695.90506 349.81322 694.93388 350 694 C 350.29532 692.52338 350.95154 691.14343 351.42773 689.71484 C 351.90392 688.76244 352.59917 687.8904 352.85742 686.85742 C 353.08843 685.93348 352.62645 684.92398 352.85742 684 C 353.11567 682.96702 354.07634 682.18671 354.28516 681.14258 C 355.47564 675.1902 353.4915 678.7619 354.28516 674 C 354.8831 670.4124 356.01031 667.39677 357.14258 664 C 357.61877 662.57141 358.27693 661.19143 358.57227 659.71484 C 360.09865 652.08284 355.85681 662.93025 360 652.57227 C 361.52381 648.76273 361.90983 650.16571 362.85742 645.42773 C 363.04421 644.49385 362.67064 643.50611 362.85742 642.57227 C 363.15274 641.09564 363.80897 639.7137 364.28516 638.28516 C 364.76135 636.85657 365.15558 635.39812 365.71484 634 C 366.11029 633.01135 366.88432 632.17556 367.14258 631.14258 C 369.68658 620.96658 362.82011 638.38042 368.57227 624 C 369.90464 620.6691 370.75089 620.91856 371.42773 616.85742 C 371.66259 615.4483 371.19287 613.98139 371.42773 612.57227 C 371.67529 611.08687 372.38123 609.7137 372.85742 608.28516 C 373.33361 606.85657 373.7259 605.39812 374.28516 604 C 374.68062 603.01135 375.45659 602.17556 375.71484 601.14258 C 378.25885 590.96658 371.39042 608.38038 377.14258 594 C 378.47492 590.66906 379.32312 590.91856 380 586.85742 C 380.23471 585.4483 379.71994 583.97307 380 582.57227 C 380.20882 581.52813 381.03228 580.70349 381.42773 579.71484 C 381.98699 578.31672 382.29817 576.8259 382.85742 575.42773 C 383.25287 574.43912 384.07615 573.6164 384.28516 572.57227 C 384.56522 571.17146 384.00509 569.686 384.28516 568.28516 C 384.49401 567.24106 385.50621 566.47187 385.71484 565.42773 C 385.99491 564.02689 385.18427 562.46897 385.71484 561.14258 C 386.21506 559.89205 388.07205 559.53569 388.57227 558.28516 C 389.10284 556.95877 388.57227 555.42859 388.57227 554 C 388.57227 553.52382 388.42184 553.02399 388.57227 552.57227 C 391.52805 543.70496 388.45506 557.31851 391.42773 545.42773 C 391.87595 543.63503 390.97956 541.50755 391.42773 539.71484 C 391.59109 539.06151 392.55619 538.8875 392.85742 538.28516 C 393.53086 536.93828 393.7259 535.39812 394.28516 534 C 396.57377 528.27814 394.85392 534.00676 397.14258 528.28516 C 397.70183 526.887 397.89883 525.34687 398.57227 524 C 398.87342 523.39766 399.7498 523.19751 400 522.57227 C 400.72918 520.74929 400.54967 518.61354 401.42773 516.85742 C 402.03008 515.65274 403.47702 515.07751 404.28516 514 C 404.92405 513.14817 405.12418 512.02854 405.71484 511.14258 C 406.08837 510.58223 406.76916 510.2752 407.14258 509.71484 C 407.73324 508.82888 407.93337 507.70925 408.57227 506.85742 C 410.42707 504.38433 414.0246 502.25019 415.71484 499.71484 C 415.97903 499.3186 415.37809 498.62191 415.71484 498.28516 C 416.05156 497.9484 416.80582 498.62191 417.14258 498.28516 C 417.8955 497.53224 415.74219 495.28525 418.57227 495.42773 C 425.78912 490.61647 418.60481 495.41755 422.85742 494 C 423.86758 493.66328 424.76248 493.04845 425.71484 492.57227 C 425.71484 492.09605 425.37809 491.47933 425.71484 491.14258 C 426.38828 490.46914 427.66873 491.44381 428.57227 491.14258 C 435.77227 488.74258 427.08516 490.68516 434.28516 488.28516 C 435.18865 487.98393 436.19021 488.28516 437.14258 488.28516 L 445.71484 488.28516 L 468.57227 488.28516 L 484.28516 488.28516 C 485.49714 488.28516 491.90963 488.04818 492.85742 488.28516 C 493.89044 488.54337 494.70469 489.37809 495.71484 489.71484 C 496.16657 489.86565 496.6664 489.71484 497.14258 489.71484 L 507.14258 489.71484 C 508.09494 489.71484 509.07606 489.48391 510 489.71484 C 511.03298 489.9731 511.84727 490.80582 512.85742 491.14258 C 513.30919 491.293 513.82318 491.02692 514.28516 491.14258 C 517.20692 491.87301 519.88671 493.50488 522.85742 494 C 524.26658 494.23471 525.73346 493.76529 527.14258 494 C 528.62793 494.24756 529.99915 494.95155 531.42773 495.42773 C 532.85632 495.90392 534.28626 496.38124 535.71484 496.85742 C 537.14343 497.33364 538.5521 497.87149 540 498.28516 C 541.88784 498.82453 543.85222 499.09394 545.71484 499.71484 C 546.725 500.05156 547.56211 500.80582 548.57227 501.14258 C 550.43489 501.76348 552.42253 501.9514 554.28516 502.57227 C 555.29531 502.90898 556.09848 503.79099 557.14258 504 C 558.54342 504.28006 560.02689 503.71994 561.42773 504 C 562.47187 504.20882 563.29655 505.03228 564.28516 505.42773 C 565.68332 505.98699 567.14372 506.3812 568.57227 506.85742 C 569.04845 506.85742 569.53803 506.74177 570 506.85742 C 571.4609 507.22264 572.80853 507.98998 574.28516 508.28516 C 575.21904 508.47186 576.29075 507.85924 577.14258 508.28516 C 578.34726 508.8875 578.79531 510.54023 580 511.14258 C 580.85183 511.56849 582.00559 510.71666 582.85742 511.14258 C 583.28334 511.35552 582.64463 512.14635 582.85742 512.57227 C 583.15861 513.17461 583.80897 513.52382 584.28516 514 C 584.76134 514.47618 585.1125 515.12651 585.71484 515.42773 C 586.14076 515.6409 586.80582 515.09098 587.14258 515.42773 C 587.47933 515.76445 586.92979 516.43151 587.14258 516.85742 C 587.44377 517.45977 588.27104 517.68281 588.57227 518.28516 C 588.78505 518.71107 588.3591 519.28893 588.57227 519.71484 C 590.07814 522.7266 589.92186 519.56047 591.42773 522.57227 C 591.6409 522.99818 591.27731 523.54827 591.42773 524 C 594.87697 534.34774 591.01617 521.74714 594.28516 528.28516 C 594.49832 528.71107 594.13473 529.26308 594.28516 529.71484 C 594.62187 530.725 595.37809 531.56211 595.71484 532.57227 C 595.86527 533.02399 595.56442 533.54823 595.71484 534 C 596.05156 535.01012 596.80582 535.84727 597.14258 536.85742 C 597.293 537.30919 596.99177 537.83343 597.14258 538.28516 C 597.47926 539.29531 598.09608 540.19017 598.57227 541.14258 C 599.04845 541.61876 599.78683 541.93341 600 542.57227 C 600.30123 543.4758 599.76907 544.50383 600 545.42773 C 600.25826 546.46075 601.09098 547.275 601.42773 548.28516 C 601.57854 548.73689 601.21495 549.28893 601.42773 549.71484 C 601.72892 550.31719 602.64426 550.50369 602.85742 551.14258 C 603.15865 552.04607 602.55619 553.0965 602.85742 554 C 603.0704 554.63889 603.98393 554.82539 604.28516 555.42773 C 604.49794 555.85365 604.13435 556.40569 604.28516 556.85742 C 607.73439 567.20516 603.87355 554.6046 607.14258 561.14258 C 607.56849 561.99441 606.71666 563.14813 607.14258 564 C 607.44373 564.60231 608.27104 564.82539 608.57227 565.42773 C 608.78505 565.85365 608.42146 566.40565 608.57227 566.85742 C 608.90898 567.86758 609.66324 568.70469 610 569.71484 C 610.15043 570.16661 609.78721 570.71666 610 571.14258 C 610.30119 571.74492 611.21457 571.93341 611.42773 572.57227 C 611.72896 573.4758 611.12651 574.52424 611.42773 575.42773 C 611.64067 576.06663 612.55619 576.25508 612.85742 576.85742 C 613.07059 577.28334 612.707 577.83339 612.85742 578.28516 C 613.19414 579.29531 614.02701 580.10956 614.28516 581.14258 C 614.51609 582.06652 614.28516 583.04763 614.28516 584 C 614.28516 584.47618 614.07237 585.00182 614.28516 585.42773 C 616.38718 589.63182 615.71484 583.21156 615.71484 589.71484 C 615.9731 590.74783 616.6664 591.6199 617.14258 592.57227 C 617.61876 593.04845 618.3591 593.36111 618.57227 594 C 618.77749 594.61614 618.57227 603.44139 618.57227 604 C 618.57227 604.47618 618.42184 604.97601 618.57227 605.42773 C 618.90898 606.43789 619.74186 607.25214 620 608.28516 C 620.23093 609.2091 619.81329 610.20869 620 611.14258 C 620.29533 612.61916 621.06263 613.96683 621.42773 615.42773 C 621.54339 615.88971 621.42773 616.38124 621.42773 616.85742 C 621.42773 618.51104 621.10874 622.72464 621.42773 624 C 621.68599 625.03302 622.59928 625.8244 622.85742 626.85742 C 623.31939 628.70531 622.25508 630.76527 622.85742 632.57227 C 623.07036 633.21116 624.12188 633.34667 624.28516 634 C 624.98187 636.78683 623.69506 642.4771 624.28516 645.42773 C 624.49398 646.47183 625.4567 647.25214 625.71484 648.28516 C 627.67581 656.12904 623.09565 645.90618 627.14258 654 C 627.59431 655.35526 626.86252 656.88435 627.14258 658.28516 C 627.43787 659.76178 628.27708 661.09568 628.57227 662.57227 C 628.75897 663.50615 628.57227 664.47537 628.57227 665.42773 C 628.57227 667.80869 628.18086 670.2237 628.57227 672.57227 C 628.81982 674.05762 629.75244 675.37207 630 676.85742 C 630.23471 678.26658 629.76529 679.73346 630 681.14258 C 630.24756 682.62793 631.18018 683.94238 631.42773 685.42773 C 633.35828 697.01085 628.94213 682.25417 632.85742 694 C 633.04413 694.93388 632.85742 695.90506 632.85742 696.85742 L 632.85742 701.14258 C 632.85742 702.57116 632.51084 704.04182 632.85742 705.42773 C 633.02077 706.08106 634.12188 706.20409 634.28516 706.85742 C 634.63174 708.24334 634.05045 709.73346 634.28516 711.14258 C 634.53272 712.62793 635.46728 713.94238 635.71484 715.42773 C 636.39421 719.5038 634.10172 724.60265 637.14258 728.28516 C 638.4941 735.04272 640.7351 741.35895 641.42773 748.28516 C 643.01502 764.15819 639.04678 741.14367 641.42773 762.57227 C 641.594 764.06888 642.60986 765.37207 642.85742 766.85742 C 643.09213 768.26658 642.57736 769.74177 642.85742 771.14258 C 643.06628 772.18671 643.8897 773.01139 644.28516 774 C 644.84441 775.39816 645.34974 776.82429 645.71484 778.28516 C 645.8305 778.74713 645.71484 779.23866 645.71484 779.71484 L 645.71484 784 C 645.71484 784.95237 645.52814 785.92354 645.71484 786.85742 C 646.30547 789.81063 648.07715 792.45703 648.57227 795.42773 C 648.80697 796.83686 648.37006 798.30062 648.57227 799.71484 C 648.84991 801.65847 649.7222 803.48407 650 805.42773 C 650.2022 806.84196 650 808.28626 650 809.71484 L 650 815.42773 L 650 828.28516 L 650 849.71484 C 650 851.24196 649.69046 858.16777 650 859.71484 C 650.29533 861.19143 651.13255 862.52341 651.42773 864 C 651.61444 864.93392 651.42773 865.90502 651.42773 866.85742 C 651.42773 869.71456 651.02367 872.59932 651.42773 875.42773 C 652.8211 885.18126 652.44615 875.21621 654.28516 882.57227 C 654.51609 883.49621 653.98393 884.5242 654.28516 885.42773 C 654.49813 886.06659 655.41362 886.25508 655.71484 886.85742 C 656.38828 888.20429 656.58332 889.74446 657.14258 891.14258 C 657.53803 892.13123 658.23551 892.98988 658.57227 894 C 658.72269 894.45177 658.23551 895.09098 658.57227 895.42773 C 659.78633 896.64179 661.51675 897.2126 662.85742 898.28516 C 663.90915 899.12655 664.76248 900.19017 665.71484 901.14258 C 666.19106 901.61876 666.5651 902.22568 667.14258 902.57227 C 668.96869 903.66791 670.95265 904.47537 672.85742 905.42773 C 673.80983 905.90395 674.88335 906.19226 675.71484 906.85742 C 677.29242 908.11948 678.57145 909.71399 680 911.14258 C 680.9524 911.61876 682.00559 911.93341 682.85742 912.57227 C 683.93489 913.3804 684.76248 914.47533 685.71484 915.42773 C 686.66721 916.3801 687.6199 917.33275 688.57227 918.28516 C 689.04845 918.76134 689.39766 919.41362 690 919.71484 C 690.42591 919.92763 690.95155 919.71484 691.42773 919.71484 L 692.85742 919.71484 L 700 919.71484 L 725.71484 919.71484 L 811.42773 919.71484 L 827.14258 919.71484 L 831.42773 919.71484 C 832.85632 919.71484 834.314 919.99491 835.71484 919.71484 C 836.75894 919.50599 837.52813 918.49416 838.57227 918.28516 C 839.97311 918.00509 841.42884 918.28516 842.85742 918.28516 C 843.80979 917.80897 844.68186 917.11556 845.71484 916.85742 C 846.63879 916.62649 847.6199 916.85742 848.57227 916.85742 L 857.14258 916.85742 C 858.09498 916.85742 859.0606 917.01389 860 916.85742 C 861.93667 916.53465 863.82701 915.96711 865.71484 915.42773 C 867.16274 915.01403 868.50928 914.21317 870 914 C 871.88561 913.73052 873.82172 914.21052 875.71484 914 C 880.54134 913.46372 885.22215 912.01126 890 911.14258 C 892.84984 910.62444 895.72243 910.23302 898.57227 909.71484 C 903.28337 908.85829 909.60784 907.32514 914.28516 906.85742 C 916.18048 906.66807 918.14062 907.2706 920 906.85742 C 922.50333 906.30111 924.84893 905.14682 927.14258 904 C 928.67824 903.23215 930.05422 902.17273 931.42773 901.14258 C 931.96651 900.73851 932.20409 899.87812 932.85742 899.71484 C 934.24334 899.36826 935.75666 900.06143 937.14258 899.71484 C 937.79591 899.55149 938.01195 898.65857 938.57227 898.28516 C 939.45822 897.69453 940.41758 897.19418 941.42773 896.85742 C 945.67944 895.44017 938.49795 900.239 945.71484 895.42773 C 946.27516 895.05417 946.54023 894.30123 947.14258 894 C 947.56849 893.78721 948.23551 894.33676 948.57227 894 C 948.90902 893.66328 948.23551 892.90902 948.57227 892.57227 C 949.32519 891.81935 950.67481 891.8955 951.42773 891.14258 C 951.76449 890.80586 951.09098 890.0516 951.42773 889.71484 C 951.76445 889.37809 952.52067 890.0516 952.85742 889.71484 C 953.61034 888.96189 953.69453 887.74342 954.28516 886.85742 C 956.46451 883.58843 955.41624 887.75128 957.14258 882.57227 C 957.44154 881.67565 957.14258 878.00746 957.14258 876.85742 C 957.14258 876.51794 957.30245 871.4627 957.14258 871.14258 C 956.84139 870.54023 956.01607 870.31719 955.71484 869.71484 C 955.50168 869.28893 955.71484 868.76134 955.71484 868.28516 C 954.76248 866.85661 953.80979 865.42859 952.85742 864 C 952.64426 863.57409 953.00785 863.02399 952.85742 862.57227 C 952.18399 860.55196 950.51651 858.92343 950 856.85742 C 949.76907 855.93348 950.23093 854.92394 950 854 C 949.29077 851.16301 946.42407 848.26472 945.71484 845.42773 C 945.48391 844.50379 946.01607 843.4758 945.71484 842.57227 C 945.50187 841.93337 944.58638 841.74492 944.28516 841.14258 C 943.61172 839.79571 943.3336 838.28597 942.85742 836.85742 C 941.70331 833.39496 940.46165 830.00637 938.57227 826.85742 C 937.68891 825.38518 936.39119 824.15037 935.71484 822.57227 C 934.94144 820.76762 934.90606 818.72005 934.28516 816.85742 C 933.94848 815.84727 933.25287 814.98865 932.85742 814 C 931.73891 811.20372 931.11851 808.22402 930 805.42773 C 928.6676 802.09684 927.81942 802.3463 927.14258 798.28516 C 926.90787 796.87603 927.42264 795.40084 927.14258 794 C 926.64232 791.49878 923.35764 787.92899 922.85742 785.42773 C 922.57736 784.02693 923.13748 782.54338 922.85742 781.14258 C 922.84393 781.07519 920.07899 775.6254 920 775.42773 C 918.88149 772.63145 918.26109 769.65371 917.14258 766.85742 C 915.95622 763.89151 914.11578 761.22124 912.85742 758.28516 C 912.26426 756.90106 911.98699 755.39812 911.42773 754 C 909.2895 748.65443 910.49653 753.56537 907.14258 746.85742 C 906.46914 745.51055 906.19103 744.00081 905.71484 742.57227 C 905.23866 741.14368 904.76138 739.71374 904.28516 738.28516 C 903.80897 736.85657 903.1526 735.47659 902.85742 734 C 902.67071 733.06612 903.21119 732.02684 902.85742 731.14258 C 902.28044 729.70012 898.98828 726.08003 898.57227 724 C 897.23632 717.32044 900.43107 722.00472 897.14258 715.42773 C 896.37473 713.89207 895.23756 712.57116 894.28516 711.14258 C 893.33279 709.71403 892.19558 708.39312 891.42773 706.85742 C 890.7543 705.51055 890.74714 703.87968 890 702.57227 C 888.81875 700.50502 886.93983 698.89908 885.71484 696.85742 C 884.07132 694.11825 883.1427 690.98015 881.42773 688.28516 C 879.79075 685.71277 877.40618 683.67959 875.71484 681.14258 C 874.53355 679.37066 873.80979 677.33247 872.85742 675.42773 C 870.74058 671.19402 867.24978 663.66766 864.28516 659.71484 C 863.07299 658.0986 861.07078 657.14096 860 655.42773 C 854.73621 647.00566 859.03917 650.64868 855.71484 644 C 850.32637 633.22313 853.10528 640.505 848.57227 632.57227 C 847.1771 630.13073 846.23262 628.44006 845.62109 627.3125 C 849.6358 632.99511 842.09231 620.80462 845.61523 627.30273 C 844.77459 626.11248 843.48906 624.23456 841.42773 621.14258 C 840.83711 620.25662 840.6189 619.15161 840 618.28516 C 838.22774 615.80401 836.29303 613.43724 834.28516 611.14258 C 832.95476 609.62215 831.12067 608.5384 830 606.85742 C 829.16472 605.60447 829.31936 603.87972 828.57227 602.57227 C 827.39097 600.50502 825.60587 598.83846 824.28516 596.85742 C 823.69449 595.97146 823.40526 594.91302 822.85742 594 C 821.97407 592.52772 820.76785 591.2505 820 589.71484 C 815.91153 581.53791 820.8873 588.81348 817.14258 582.57227 C 816.25923 581.09999 814.92284 579.87929 814.28516 578.28516 C 813.93139 577.4009 814.71111 576.2796 814.28516 575.42773 C 813.68285 574.22309 812.12071 573.72721 811.42773 572.57227 C 810.65301 571.28103 810.77473 569.57643 810 568.28516 C 809.14284 566.85661 806.8577 565.42855 805.71484 564 C 804.22749 562.14077 802.81165 560.22262 801.42773 558.28516 C 800.42979 556.88802 799.64482 555.34071 798.57227 554 C 797.73087 552.94827 796.5562 552.19431 795.71484 551.14258 C 794.64229 549.80187 793.85537 548.25456 792.85742 546.85742 C 791.47355 544.91996 790.00085 543.04731 788.57227 541.14258 C 787.14372 539.23781 785.46645 537.49498 784.28516 535.42773 C 783.53806 534.12028 783.60452 532.45003 782.85742 531.14258 C 781.67613 529.07533 779.95618 527.3652 778.57227 525.42773 C 777.57432 524.03059 776.6248 522.59853 775.71484 521.14258 C 774.24321 518.78801 773.09371 516.2213 771.42773 514 C 770.21556 512.38376 768.31688 511.35882 767.14258 509.71484 C 765.90478 507.98193 765.5629 505.70366 764.28516 504 C 762.66892 501.84499 760.34611 500.31242 758.57227 498.28516 C 757.0044 496.49332 755.83469 494.38001 754.28516 492.57227 C 752.97037 491.03831 751.21217 489.9014 750 488.28516 C 740.40869 475.49678 750.87852 486.45364 741.42773 475.42773 C 740.11295 473.89381 738.21336 472.8558 737.14258 471.14258 C 735.78346 468.96803 735.53051 466.24168 734.28516 464 C 733.12885 461.91869 731.06481 460.41473 730 458.28516 C 728.1805 454.64611 727.41983 450.55149 725.71484 446.85742 C 724.55128 444.33633 722.57675 442.24259 721.42773 439.71484 C 720.18151 436.9731 719.73062 433.92261 718.57227 431.14258 C 716.11504 425.24527 712.67727 419.80071 710 414 C 708.48029 410.7072 707.33668 407.2437 705.71484 404 C 703.99792 400.56615 701.82014 397.38026 700 394 C 696.97109 388.37489 694.64687 382.37591 691.42773 376.85742 C 689.69754 373.89136 687.55838 371.18216 685.71484 368.28516 C 683.46429 364.74858 677.26165 354.01528 675.71484 351.14258 C 674.20039 348.33004 672.65635 345.5209 671.42773 342.57227 C 670.26938 339.79223 669.65336 336.81095 668.57227 334 C 657.00665 303.92944 671.21151 342.3354 660 315.42773 C 655.45576 304.52161 658.47518 309.83608 655.71484 299.71484 C 652.21296 286.87462 653.83418 295.50246 650 284 C 644.7652 268.29554 653.47283 290.81567 647.14258 269.71484 C 646.53063 267.67506 645.15006 265.94604 644.28516 264 C 643.24367 261.65665 642.67309 259.09908 641.42773 256.85742 C 640.27143 254.7761 637.8955 253.40135 637.14258 251.14258 C 636.38966 248.88381 637.14258 246.38095 637.14258 244 C 636.6664 242.57143 636.30804 241.09893 635.71484 239.71484 C 634.03707 235.80004 631.67777 232.19997 630 228.28516 C 629.91485 228.08647 627.18566 219.78684 627.14258 219.71484 C 626.4496 218.55991 624.8875 218.0621 624.28516 216.85742 C 623.4071 215.10132 623.3968 213.03042 622.85742 211.14258 C 622.44371 209.69467 622.02093 208.24151 621.42773 206.85742 C 620.58887 204.90002 619.62883 202.99158 618.57227 201.14258 C 617.72044 199.65186 616.39115 198.43553 615.71484 196.85742 C 614.9414 195.05279 614.97454 192.98095 614.28516 191.14258 C 613.53741 189.14858 612.2666 187.38513 611.42773 185.42773 C 607.97408 177.3692 612.19691 185.09349 608.57227 175.42773 C 607.82449 173.43375 606.66725 171.6196 605.71484 169.71484 C 604.76248 167.81008 603.9861 165.80589 602.85742 164 C 601.59551 161.98096 599.75356 160.35241 598.57227 158.28516 C 597.82517 156.97772 597.81598 155.34687 597.14258 154 C 596.37473 152.46433 595.23756 151.14341 594.28516 149.71484 C 593.33279 148.28627 592.50029 146.76843 591.42773 145.42773 C 590.58637 144.37601 589.31936 143.69293 588.57227 142.57227 C 587.39097 140.80034 587.07816 138.49342 585.71484 136.85742 C 584.61568 135.53844 582.64176 135.21405 581.42773 134 C 580.67481 133.24708 580.63889 131.99441 580 131.14258 C 579.1919 130.06508 577.98394 129.33689 577.14258 128.28516 C 576.07002 126.94447 575.16851 125.47225 574.28516 124 C 573.73731 123.08695 573.61034 121.8955 572.85742 121.14258 C 572.1045 120.38965 570.75292 120.46777 570 119.71484 C 568.78594 118.50078 568.21513 116.76843 567.14258 115.42773 C 565.88048 113.85014 564.28597 112.57115 562.85742 111.14258 C 562.51794 110.8031 557.62288 105.58784 557.14258 105.42773 C 556.93363 105.35809 556.37 105.32361 555.62305 105.31055 z M 513.5957 255.30469 C 513.97208 255.31854 514.23593 255.35384 514.28516 255.42773 C 515.68765 257.53148 515.86354 260.61103 517.2168 262.64453 L 518.57227 264 C 520.63128 265.28689 523.31114 262.91564 525.71484 262.57227 C 530.51326 261.88678 528.53478 264.34707 532.85742 265.42773 C 533.78137 265.65874 534.81135 265.12658 535.71484 265.42773 C 536.35374 265.6407 536.58223 266.48389 537.14258 266.85742 C 538.02854 267.44806 538.98985 267.94844 540 268.28516 C 540.45173 268.43573 541.09098 267.94844 541.42773 268.28516 C 541.76449 268.62187 541.09098 269.37813 541.42773 269.71484 C 547.0031 275.29017 542.19633 269.38333 545.71484 271.14258 C 546.31719 271.44375 546.54023 272.27111 547.14258 272.57227 C 547.56849 272.78524 548.23551 272.23555 548.57227 272.57227 C 549.32519 273.32519 549.24708 274.67481 550 275.42773 C 550.33672 275.76445 551.09098 275.09102 551.42773 275.42773 C 553.3325 277.3325 549.04792 276.85742 552.85742 276.85742 C 554.06211 277.45976 554.43706 279.28891 555.71484 279.71484 C 556.61834 280.01607 557.72044 279.28891 558.57227 279.71484 C 558.99818 279.92778 558.23551 280.80582 558.57227 281.14258 C 559.32519 281.8955 560.54178 281.9816 561.42773 282.57227 C 563.10875 283.6929 564.0986 285.64525 565.71484 286.85742 C 567.4185 288.1352 569.9219 288.209 571.42773 289.71484 C 572.18065 290.46776 572.1045 291.81935 572.85742 292.57227 C 573.61034 293.32519 574.86301 293.36111 575.71484 294 C 576.79235 294.8081 577.49476 296.04928 578.57227 296.85742 C 579.4241 297.49628 580.67481 297.53224 581.42773 298.28516 C 581.76449 298.62187 581.00182 299.50206 581.42773 299.71484 C 582.27956 300.14076 583.38166 299.41362 584.28516 299.71484 C 584.92405 299.92778 585.1125 300.84135 585.71484 301.14258 C 586.14076 301.35537 586.80582 300.80582 587.14258 301.14258 C 587.8955 301.8955 587.93337 303.14817 588.57227 304 C 589.03114 304.61183 593.8521 308.84869 594.28516 309.71484 C 594.95859 311.06168 594.81135 312.79531 595.71484 314 C 596.3537 314.85187 597.98164 314.54178 598.57227 315.42773 C 599.10057 316.22015 598.044 317.49274 598.57227 318.28516 C 599.16293 319.17112 600.67481 318.96192 601.42773 319.71484 C 602.18065 320.46776 602.2668 321.68631 602.85742 322.57227 C 603.23099 323.13258 603.91174 323.43965 604.28516 324 C 604.87578 324.88596 604.96192 326.1045 605.71484 326.85742 C 606.05156 327.19418 606.80582 326.52067 607.14258 326.85742 C 607.47933 327.19414 606.92941 327.85924 607.14258 328.28516 C 607.44373 328.8875 608.3591 329.07595 608.57227 329.71484 C 608.87349 330.61834 608.14631 331.72044 608.57227 332.57227 C 608.7852 332.99818 609.78721 332.14635 610 332.57227 C 610.16781 332.90819 610 337.3467 610 338.28516 L 610 355.42773 L 610 368.28516 L 610 372.57227 C 610 373.04845 610.11565 373.53803 610 374 C 609.63478 375.4609 609.04845 376.85657 608.57227 378.28516 C 608.09605 379.71374 607.70183 381.1741 607.14258 382.57227 C 606.74713 383.56088 606.0516 384.41758 605.71484 385.42773 C 605.56442 385.8795 605.92801 386.43151 605.71484 386.85742 C 605.41369 387.45977 604.88746 387.98393 604.28516 388.28516 C 603.67503 388.59016 597.70728 388.28516 597.14258 388.28516 L 551.42773 388.28516 L 504.28516 388.28516 L 475.71484 388.28516 L 471.42773 388.28516 C 470.95155 388.28516 470.46692 388.37851 470 388.28516 C 468.07471 387.90014 466.21041 387.24248 464.28516 386.85742 C 463.8182 386.76407 463.19418 387.19418 462.85742 386.85742 C 462.52067 386.5207 463.19418 385.76449 462.85742 385.42773 C 462.1045 384.67481 460.75292 384.75292 460 384 C 459.66324 383.66328 460 383.04845 460 382.57227 L 460 381.14258 L 460 374 L 460 372.57227 C 460 372.09605 459.78721 371.56849 460 371.14258 C 460.30119 370.54023 461.12651 370.31719 461.42773 369.71484 C 461.87667 368.81698 460.9788 364.8979 461.42773 364 C 461.72889 363.39766 462.55619 363.17461 462.85742 362.57227 C 463.28334 361.72044 462.43151 360.56667 462.85742 359.71484 C 463.15861 359.1125 463.98393 358.8875 464.28516 358.28516 C 464.71107 357.43333 463.98393 356.33127 464.28516 355.42773 C 467.73439 345.07999 463.87359 357.68059 467.14258 351.14258 C 468.28891 348.84995 468.33565 346.0804 470 344 C 471.26206 342.42243 473.0231 341.29242 474.28516 339.71484 C 474.95035 338.88335 475.12418 337.74338 475.71484 336.85742 C 478.78099 332.25823 480.30186 331.32962 482.85742 326.85742 C 483.91399 325.0084 484.76248 323.04735 485.71484 321.14258 C 486.19106 320.19021 486.50369 319.13699 487.14258 318.28516 C 487.95072 317.20765 489.2529 316.5484 490 315.42773 C 490.26419 315.03153 489.78721 314.42591 490 314 C 491.63007 310.73986 493.21604 310.06477 494.28516 306.85742 C 494.43558 306.40569 494.07237 305.85365 494.28516 305.42773 C 494.58631 304.82539 495.34143 304.56031 495.71484 304 C 496.30547 303.11404 496.6664 302.09494 497.14258 301.14258 C 497.6188 300.6664 498.19885 300.2752 498.57227 299.71484 C 504.35422 291.04189 494.45821 304.18815 501.42773 292.57227 C 502.12071 291.41732 503.47706 290.79231 504.28516 289.71484 C 504.92405 288.86301 505.12418 287.74338 505.71484 286.85742 C 507.03556 284.87638 508.61609 283.08004 510 281.14258 C 510.99795 279.74544 511.78487 278.19812 512.85742 276.85742 C 513.69882 275.80569 515.02191 275.15493 515.71484 274 C 516.59321 272.53611 518.30543 265.06739 518.57227 264 C 518.0075 263.64702 517.57325 263.18017 517.2168 262.64453 L 510 255.42773 C 510.3325 255.42773 512.46656 255.26312 513.5957 255.30469 z "
       transform="matrix(0.26458333,0,0,0.26458333,0,26.066667)"
       id="path4049" />
    <circle
       style="fill:#000000;stroke-width:0.24647887"
       id="path3978"
       cx="55"
       cy="72"
       r="25" />
    <circle
       style="fill:#000000;stroke-width:0.24647887"
       id="path3978-2"
       cx="225"
       cy="72"
       r="25" />
    <circle
       style="fill:#000000;stroke-width:0.24647886"
       id="path3978-9"
       cx="225"
       cy="157"
       r="25" />
    <circle
       style="fill:#000000;stroke-width:0.24647886"
       id="path3978-8"
       cx="225"
       cy="242"
       r="25" />
    <circle
       style="fill:#000000;stroke-width:0.24647886"
       id="path3978-84"
       cx="55"
       cy="157"
       r="25" />
    <circle
       style="fill:#000000;stroke-width:0.24647886"
       id="path3978-5"
       cx="55"
       cy="242"
       r="25" />
    <flowRoot
       xml:space="preserve"
       id="flowRoot4041"
       style="font-style:normal;font-weight:normal;font-size:853.33349609px;line-height:1.25;font-family:sans-serif;letter-spacing:0px;word-spacing:0px;fill:#000000;fill-opacity:1;stroke:none"
       transform="matrix(0.26458333,0,0,0.26458333,0,26.066667)"><flowRegion
         id="flowRegion4043"
         style="font-size:853.33349609px"><rect
           id="rect4045"
           width="917.14294"
           height="944.28571"
           x="65.714287"
           y="52.571419"
           style="font-size:853.33349609px" /></flowRegion><flowPara
         id="flowPara4047"
         style="font-style:normal;font-variant:normal;font-weight:normal;font-stretch:normal;font-size:853.33349609px;font-family:'Sitka Display';-inkscape-font-specification:'Sitka Display'">AA</flowPara></flowRoot>  </g>
</svg>
